<?xml version="1.0" encoding="utf-8"?><svg viewBox="0 0 100 100" xmlns="http://www.w3.org/2000/svg" xmlns:xlink="http://www.w3.org/1999/xlink"><style>:root>svg{display:none}:root>svg:target{display:block}</style><svg fill="none" viewBox="0 0 23 16" id="add-client" xmlns="http://www.w3.org/2000/svg"><path d="M14.5 8c2.21 0 4-1.79 4-4s-1.79-4-4-4-4 1.79-4 4 1.79 4 4 4Zm-9-2V3h-2v3h-3v2h3v3h2V8h3V6h-3Zm9 4c-2.67 0-8 1.34-8 4v2h16v-2c0-2.66-5.33-4-8-4Z" fill="#9873FF"/></svg><svg viewBox="0 0 16 16" id="add-contact" xmlns="http://www.w3.org/2000/svg"><g clip-path="url(#ca)"><path d="M8 4.667c-.367 0-.667.3-.667.666v2h-2c-.366 0-.666.3-.666.667 0 .367.3.667.666.667h2v2c0 .366.3.666.667.666.367 0 .667-.3.667-.666v-2h2c.366 0 .666-.3.666-.667 0-.367-.3-.667-.666-.667h-2v-2c0-.366-.3-.666-.667-.666Zm0-3.334A6.67 6.67 0 0 0 1.333 8 6.67 6.67 0 0 0 8 14.667 6.67 6.67 0 0 0 14.667 8 6.669 6.669 0 0 0 8 1.333Zm0 12A5.34 5.34 0 0 1 2.667 8 5.34 5.34 0 0 1 8 2.667 5.34 5.34 0 0 1 13.333 8 5.34 5.34 0 0 1 8 13.333Z"/></g><defs><clipPath id="ca"><path d="M0 0h16v16H0z"/></clipPath></defs></svg><svg fill="none" viewBox="0 0 12 12" id="add-contact-arrow" xmlns="http://www.w3.org/2000/svg"><g clip-path="url(#ba)"><path d="M1.495 3.69a.625.625 0 0 0 0 .885L5.65 8.73c.195.195.51.195.705 0l4.155-4.155a.625.625 0 1 0-.885-.885L6 7.31 2.375 3.685a.623.623 0 0 0-.88.005Z" fill="#9873FF"/></g><defs><clipPath id="ba"><path fill="#fff" transform="rotate(-90 6 6)" d="M0 0h12v12H0z"/></clipPath></defs></svg><svg fill="none" viewBox="0 0 12 12" id="arrow-sort" xmlns="http://www.w3.org/2000/svg"><path d="m2 6 .705.705L5.5 3.915V10h1V3.915L9.29 6.71 10 6 6 2 2 6Z" fill="#9873FF"/></svg><svg fill="none" viewBox="0 0 16 16" id="cancel" xmlns="http://www.w3.org/2000/svg"><g opacity=".7" clip-path="url(#ea)"><path d="M8 2C4.682 2 2 4.682 2 8s2.682 6 6 6 6-2.682 6-6-2.682-6-6-6Zm0 10.8A4.806 4.806 0 0 1 3.2 8c0-2.646 2.154-4.8 4.8-4.8s4.8 2.154 4.8 4.8-2.154 4.8-4.8 4.8ZM10.154 5 8 7.154 5.846 5 5 5.846 7.154 8 5 10.154l.846.846L8 8.846 10.154 11l.846-.846L8.846 8 11 5.846 10.154 5Z" fill="#F06A4D"/></g><defs><clipPath id="ea"><path fill="#fff" d="M0 0h16v16H0z"/></clipPath></defs></svg><svg fill="none" viewBox="0 0 29 29" id="cross" xmlns="http://www.w3.org/2000/svg"><path fill-rule="evenodd" clip-rule="evenodd" d="m22.233 7.733-.966-.966-6.767 6.766-6.767-6.766-.966.966 6.766 6.767-6.766 6.767.966.966 6.767-6.766 6.767 6.766.966-.966-6.767-6.767 6.767-6.767Z" fill="#B0B0B0"/></svg><svg viewBox="0 0 16 16" id="delete" xmlns="http://www.w3.org/2000/svg"><g clip-path="url(#ga)"><path d="M8 2C4.682 2 2 4.682 2 8s2.682 6 6 6 6-2.682 6-6-2.682-6-6-6Zm0 10.8A4.806 4.806 0 0 1 3.2 8c0-2.646 2.154-4.8 4.8-4.8s4.8 2.154 4.8 4.8-2.154 4.8-4.8 4.8ZM10.154 5 8 7.154 5.846 5 5 5.846 7.154 8 5 10.154l.846.846L8 8.846 10.154 11l.846-.846L8.846 8 11 5.846 10.154 5Z"/></g><defs><clipPath id="ga"><path fill="#fff" d="M0 0h16v16H0z"/></clipPath></defs></svg><svg fill="none" viewBox="0 0 16 16" id="edit" xmlns="http://www.w3.org/2000/svg"><g opacity=".7" clip-path="url(#ha)"><path d="M2 11.5V14h2.5l7.373-7.373-2.5-2.5L2 11.5Zm11.807-6.807c.26-.26.26-.68 0-.94l-1.56-1.56a.664.664 0 0 0-.94 0l-1.22 1.22 2.5 2.5 1.22-1.22Z" fill="#9873FF"/></g><defs><clipPath id="ha"><path fill="#fff" d="M0 0h16v16H0z"/></clipPath></defs></svg><svg viewBox="0 0 16 16" id="fb" xmlns="http://www.w3.org/2000/svg"><path d="M8 0C3.6 0 0 3.606 0 8.048c0 4.016 2.928 7.35 6.752 7.952v-5.623H4.72V8.048h2.032V6.273c0-2.016 1.192-3.124 3.024-3.124.872 0 1.784.152 1.784.152v1.984h-1.008c-.992 0-1.304.619-1.304 1.253v1.51h2.224l-.36 2.33H9.248V16a7.992 7.992 0 0 0 4.84-2.723A8.051 8.051 0 0 0 16 8.048C16 3.606 12.4 0 8 0Z" opacity=".7"/></svg><svg fill="none" viewBox="0 0 16 16" id="load-cancel" xmlns="http://www.w3.org/2000/svg"><g clip-path="url(#ja)"><path d="M3 8.04a5.04 5.04 0 1 0 3.196-4.692" stroke="#F06A4D" stroke-width="2" stroke-miterlimit="10" stroke-linecap="round"/></g><defs><clipPath id="ja"><path fill="#fff" d="M0 0h16v16H0z"/></clipPath></defs></svg><svg fill="none" viewBox="0 0 16 16" id="load-change" xmlns="http://www.w3.org/2000/svg"><g clip-path="url(#ka)"><path d="M3 8.04a5.04 5.04 0 1 0 3.196-4.692" stroke="#9873FF" stroke-width="2" stroke-miterlimit="10" stroke-linecap="round"/></g><defs><clipPath id="ka"><path fill="#fff" d="M0 0h16v16H0z"/></clipPath></defs></svg><svg fill="none" viewBox="0 0 16 16" id="loader-change-contact" xmlns="http://www.w3.org/2000/svg"><g clip-path="url(#la)"><path d="M3 8.04a5.04 5.04 0 1 0 3.196-4.692" stroke="#B89EFF" stroke-width="2" stroke-miterlimit="10" stroke-linecap="round"/></g><defs><clipPath id="la"><path fill="#fff" d="M0 0h16v16H0z"/></clipPath></defs></svg><svg fill="none" viewBox="0 0 50 50" id="logo" xmlns="http://www.w3.org/2000/svg"><circle cx="25" cy="25" r="25" fill="#9873FF"/><path d="M17.262 29.082c0 .668-.159 1.233-.475 1.696-.31.457-.776.806-1.397 1.046-.621.235-1.395.352-2.32.352-.686 0-1.275-.044-1.767-.132a7.27 7.27 0 0 1-1.477-.44V29.39c.533.24 1.105.44 1.714.597.615.153 1.154.229 1.617.229.522 0 .894-.076 1.116-.229.229-.158.343-.363.343-.615a.729.729 0 0 0-.14-.44c-.088-.134-.282-.284-.58-.448-.3-.17-.768-.39-1.407-.659-.615-.258-1.122-.518-1.52-.782-.393-.264-.686-.574-.88-.932-.187-.363-.28-.823-.28-1.38 0-.908.351-1.59 1.054-2.047.71-.463 1.656-.695 2.84-.695.609 0 1.189.062 1.74.185.556.123 1.127.32 1.713.589l-.808 1.933c-.487-.21-.947-.384-1.38-.518a4.336 4.336 0 0 0-1.31-.202c-.392 0-.688.052-.887.158a.515.515 0 0 0-.3.483c0 .158.05.299.15.422.106.123.305.26.598.413.299.147.735.337 1.31.571.556.229 1.04.47 1.45.721.41.246.726.554.949.923.222.363.334.835.334 1.415Zm4.772-10.758v6.117c0 .37-.014.739-.044 1.108-.03.369-.061.738-.096 1.107h.035c.181-.258.366-.512.553-.764.194-.252.399-.495.616-.73l2.75-2.988h3.024l-3.902 4.262L29.11 32h-3.094l-2.83-3.981-1.152.922V32h-2.68V18.324h2.68Zm11.162 0v3.182c0 .369-.011.735-.035 1.099a9.222 9.222 0 0 1-.07.843h.105c.258-.404.61-.747 1.055-1.028.445-.287 1.022-.43 1.731-.43 1.102 0 1.995.43 2.681 1.291.686.862 1.028 2.124 1.028 3.788 0 1.12-.158 2.06-.474 2.822-.317.756-.759 1.327-1.327 1.714-.569.38-1.228.57-1.978.57-.72 0-1.289-.128-1.705-.386a3.921 3.921 0 0 1-1.01-.87h-.185L32.563 32h-2.047V18.324h2.68Zm1.925 5.81c-.469 0-.84.096-1.116.29-.276.193-.478.483-.607.87-.123.387-.19.876-.202 1.468v.29c0 .955.14 1.687.422 2.197.281.504.794.756 1.538.756.551 0 .988-.255 1.31-.765.328-.51.492-1.245.492-2.206 0-.96-.164-1.684-.492-2.17-.328-.487-.776-.73-1.345-.73Zm6.407 6.61c0-.552.15-.938.449-1.161.304-.223.67-.334 1.098-.334.416 0 .774.111 1.072.334.305.223.458.61.458 1.16 0 .527-.153.908-.457 1.143a1.685 1.685 0 0 1-1.073.351c-.428 0-.794-.117-1.098-.351-.3-.235-.449-.616-.449-1.143Z" fill="#fff"/></svg><svg viewBox="0 0 16 16" id="mail" xmlns="http://www.w3.org/2000/svg"><path opacity=".7" fill-rule="evenodd" clip-rule="evenodd" d="M8 16A8 8 0 1 0 8 0a8 8 0 0 0 0 16ZM4 5.75c0-.412.36-.75.8-.75h6.4c.44 0 .8.338.8.75v4.5c0 .412-.36.75-.8.75H4.8c-.44 0-.8-.338-.8-.75v-4.5Zm4.424 2.377 2.616-1.533c.1-.06.16-.162.16-.27 0-.252-.292-.401-.52-.27L8 7.625 5.32 6.054c-.228-.131-.52.018-.52.27 0 .109.06.21.16.27l2.616 1.533c.26.154.588.154.848 0Z"/></svg><svg fill="none" viewBox="0 0 16 16" id="other" xmlns="http://www.w3.org/2000/svg"><path opacity=".7" fill-rule="evenodd" clip-rule="evenodd" d="M8 16A8 8 0 1 0 8 0a8 8 0 0 0 0 16ZM3 8c0-2.76 2.24-5 5-5s5 2.24 5 5-2.24 5-5 5-5-2.24-5-5Zm6.5-2c0-.83-.67-1.5-1.5-1.5S6.5 5.17 6.5 6 7.17 7.5 8 7.5 9.5 6.83 9.5 6ZM5 9.99a3.6 3.6 0 0 0 6 0c-.015-.995-2.005-1.54-3-1.54-1 0-2.985.545-3 1.54Z" fill="#9873FF"/></svg><svg viewBox="0 0 16 16" id="phone" xmlns="http://www.w3.org/2000/svg"><g opacity=".7"><circle cx="8" cy="8" r="8"/><path d="M11.56 9.502a5.085 5.085 0 0 1-1.569-.249.434.434 0 0 0-.449.107l-.698.876C7.587 9.636 6.41 8.502 5.782 7.2l.867-.738a.454.454 0 0 0 .107-.453 4.957 4.957 0 0 1-.25-1.569c0-.24-.2-.44-.44-.44H4.53C4.289 4 4 4.107 4 4.44 4 8.569 7.436 12 11.56 12c.316 0 .44-.28.44-.524V9.942c0-.24-.2-.44-.44-.44Z" fill="#fff"/></g></svg><svg fill="none" viewBox="0 0 100 100" id="table-loader" xmlns="http://www.w3.org/2000/svg"><g clip-path="url(#qa)"><path d="M14 50c0 19.882 16.118 36 36 36s36-16.118 36-36c0-19.881-16.118-36-36-36-4.649 0-9.092.882-13.172 2.486" stroke="#9873FF" stroke-width="8" stroke-miterlimit="10" stroke-linecap="round"/></g><defs><clipPath id="qa"><path fill="#fff" d="M0 0h100v100H0z"/></clipPath></defs></svg><svg viewBox="0 0 16 16" id="vk" xmlns="http://www.w3.org/2000/svg"><path d="M8 0a8 8 0 1 0 0 16A8 8 0 0 0 8 0Zm4.058 8.865c.373.364.767.707 1.102 1.109.148.178.288.362.395.568.152.295.014.618-.25.636h-1.639c-.423.035-.76-.136-1.044-.426-.226-.23-.437-.477-.655-.715a1.533 1.533 0 0 0-.295-.263c-.224-.145-.418-.1-.546.133-.13.238-.16.5-.172.765-.018.387-.135.488-.523.506-.828.038-1.614-.087-2.345-.505-.645-.368-1.143-.888-1.578-1.477C3.66 8.048 3.013 6.788 2.43 5.493c-.13-.292-.035-.448.287-.455a45.59 45.59 0 0 1 1.605 0c.218.003.362.128.445.333.29.712.644 1.388 1.088 2.016.118.167.239.334.41.452.19.13.336.087.425-.125.057-.135.082-.279.094-.423a6.317 6.317 0 0 0-.026-1.482c-.045-.308-.219-.507-.526-.565-.156-.03-.134-.088-.057-.177.132-.155.255-.25.503-.25H8.53c.291.057.357.188.396.482l.002 2.058c-.003.113.057.45.261.525.164.054.272-.077.37-.18.444-.472.76-1.028 1.044-1.604.125-.254.233-.517.338-.78.077-.194.199-.29.418-.287l1.783.002c.053 0 .106 0 .158.01.3.051.383.18.29.474-.146.46-.43.844-.708 1.229-.298.411-.616.809-.91 1.222-.272.379-.25.569.086.897Z" opacity=".7"/></svg></svg>